HIERARCHY
ROOT Hips
{
 OFFSET 0.000000 0.000000 0.000000
 CHANNELS 6 Xposition Yposition Zposition Yrotation Xrotation Zrotation
 JOINT Chest
 {
  OFFSET 0.000000 9.585900 0.002600
  CHANNELS 3 Yrotation Xrotation Zrotation
  JOINT Chest2
  {
   OFFSET 0.000000 9.601200 -0.005300
   CHANNELS 3 Yrotation Xrotation Zrotation
   JOINT Chest3
   {
    OFFSET 0.000000 9.561800 0.000000
    CHANNELS 3 Yrotation Xrotation Zrotation
    JOINT Chest4
    {
     OFFSET 0.000000 9.552100 0.000000
     CHANNELS 3 Yrotation Xrotation Zrotation
     JOINT Neck
     {
      OFFSET 0.000000 14.453000 0.000000
      CHANNELS 3 Yrotation Xrotation Zrotation
      JOINT Head
      {
       OFFSET 0.000000 8.936500 -0.011300
       CHANNELS 3 Yrotation Xrotation Zrotation
       End Site
       {
        OFFSET 0.000000 17.073600 -0.006000
       }
      }
     }
     JOINT RightCollar
     {
      OFFSET -2.921100 9.558500 0.000000
      CHANNELS 3 Yrotation Xrotation Zrotation
      JOINT RightShoulder
      {
       OFFSET -13.519700 0.000000 0.000000
       CHANNELS 3 Yrotation Xrotation Zrotation
       JOINT RightElbow
       {
        OFFSET 0.000000 -29.696600 0.000000
        CHANNELS 3 Yrotation Xrotation Zrotation
        JOINT RightWrist
        {
         OFFSET 0.000000 -24.004700 0.000000
         CHANNELS 3 Yrotation Xrotation Zrotation
         End Site
         {
          OFFSET 0.000000 -17.728500 0.000000
         }
        }
       }
      }
     }
     JOINT LeftCollar
     {
      OFFSET 2.921100 9.558500 0.000000
      CHANNELS 3 Yrotation Xrotation Zrotation
      JOINT LeftShoulder
      {
       OFFSET 13.519700 0.000000 0.000000
       CHANNELS 3 Yrotation Xrotation Zrotation
       JOINT LeftElbow
       {
        OFFSET 0.000000 -29.696600 0.000000
        CHANNELS 3 Yrotation Xrotation Zrotation
        JOINT LeftWrist
        {
         OFFSET 0.000000 -24.004700 0.000000
         CHANNELS 3 Yrotation Xrotation Zrotation
         End Site
         {
          OFFSET 0.000000 -17.728500 0.000000
         }
        }
       }
      }
     }
    }
   }
  }
 }
 JOINT RightHip
 {
  OFFSET -7.771700 -0.012900 -0.001300
  CHANNELS 3 Yrotation Xrotation Zrotation
  JOINT RightKnee
  {
   OFFSET 0.000000 -40.869800 0.001200
   CHANNELS 3 Yrotation Xrotation Zrotation
   JOINT RightAnkle
   {
    OFFSET 0.000000 -39.717900 0.002100
    CHANNELS 3 Yrotation Xrotation Zrotation
    JOINT RightToe
    {
     OFFSET 0.000000 -4.965400 11.033500
     CHANNELS 3 Yrotation Xrotation Zrotation
     End Site
     {
      OFFSET 0.000000 -1.423100 5.872300
     }
    }
   }
  }
 }
 JOINT LeftHip
 {
  OFFSET 7.771700 -0.012900 -0.001300
  CHANNELS 3 Yrotation Xrotation Zrotation
  JOINT LeftKnee
  {
   OFFSET 0.000000 -40.869800 0.001200
   CHANNELS 3 Yrotation Xrotation Zrotation
   JOINT LeftAnkle
   {
    OFFSET 0.000000 -39.717900 0.002100
    CHANNELS 3 Yrotation Xrotation Zrotation
    JOINT LeftToe
    {
     OFFSET 0.000000 -4.965400 11.033500
     CHANNELS 3 Yrotation Xrotation Zrotation
     End Site
     {
      OFFSET 0.000000 -1.423100 5.872300
     }
    }
   }
  }
 }
}
MOTION
Frames: 16
Frame Time: 0.008333
0.000000 85.388000 0.000000 0.000000 -5.767877 0.000000 0.000000 11.653817 0.000000 0.000000 -5.885947 0.000000 0.000000 -0.000000 0.000000 0.000000 -0.000000 0.000000 0.000000 12.528835 0.000000 0.000000 0.711642 0.000000 0.000000 -0.000000 0.000000 0.000000 0.000000 -90.000000 0.000000 -2.309062 0.000000 0.000000 2.309062 0.000000 0.000000 -0.000000 0.000000 0.000000 -0.000000 90.000000 0.000000 -2.309062 0.000000 0.000000 2.309062 0.000000 0.000000 8.520406 0.000000 0.000000 1.905762 0.000000 -0.000000 -4.658285 0.000000 0.000000 -0.000000 0.000000 0.000000 8.520406 0.000000 0.000000 1.905762 0.000000 -0.000000 -4.658285 0.000000 0.000000 -0.000000 0.000000
-38.537665 50.664749 17.699587 165.631425 -6.560681 -0.799742 0.796208 7.170786 1.555954 0.023042 0.327141 0.027395 0.040486 0.573174 0.048101 0.529201 6.989244 0.617011 3.965772 19.687642 -0.389516 7.354755 0.879637 -1.914775 -0.693079 6.309928 -1.636709 -4.589606 -9.273937 -8.096763 60.962606 -62.299352 -37.984847 13.807788 22.470547 -11.250265 -3.047646 2.317981 -0.518579 8.400456 -8.081806 7.668518 -75.909576 -52.403932 51.149032 -5.369279 12.005790 15.090282 -10.709429 -73.070719 2.769021 -132.820145 81.273952 -130.548798 -2.672823 -17.837911 -1.385720 -0.276115 0.679953 -0.165288 -7.846353 -78.391524 23.861606 98.918877 78.387638 95.657473 -15.086154 -22.944954 2.197126 -0.245478 -1.404278 -0.207466
-38.548753 50.669161 17.691897 165.682575 -6.476180 -0.793124 0.814766 7.250589 1.552348 0.024046 0.329310 0.027409 0.042297 0.577004 0.048155 0.549063 7.010560 0.617016 3.985541 19.568396 -0.391624 7.395953 0.659648 -1.931388 -0.630928 6.175391 -1.712087 -4.292900 -9.138971 -8.160614 60.446939 -62.056472 -36.996406 13.534569 22.430373 -11.678062 -3.204249 2.153933 -0.531072 7.606557 -8.134017 8.337677 -74.821182 -51.772143 49.271031 -3.978277 10.382865 16.540021 -10.702829 -73.134060 2.712288 -132.902086 81.290886 -130.607273 -2.715002 -17.885066 -1.387962 -0.240907 0.714430 -0.139787 -7.707729 -78.465854 23.623066 98.698315 78.335476 95.489744 -15.091011 -23.003221 2.172305 -0.259461 -1.325822 -0.181684
-38.576670 50.671436 17.683001 165.774052 -6.360518 -0.719959 0.779883 7.296584 1.469206 0.024552 0.330890 0.027341 0.043168 0.579793 0.047972 0.558554 7.026555 0.614306 3.965085 19.421303 -0.386541 7.468195 0.479958 -1.948827 -0.559320 6.035647 -1.777349 -3.969007 -9.007031 -8.212813 60.017107 -61.778090 -36.149542 13.161484 22.351134 -12.465556 -3.314702 1.989736 -0.511864 6.697388 -8.094669 8.959566 -72.927691 -51.945349 47.090501 -2.718280 8.392645 18.953416 -10.618876 -73.232451 2.552926 -132.795433 81.284891 -130.517868 -2.837411 -17.990201 -1.380806 -0.135767 0.796733 -0.096857 -6.928054 -78.644720 22.515151 98.399769 78.107345 95.379476 -14.748226 -22.988613 2.098350 -0.530211 -1.355756 -0.299022
-38.622726 50.671440 17.666544 165.926636 -6.249611 -0.554358 0.663401 7.341997 1.277615 0.024764 0.332019 0.027106 0.043447 0.581658 0.047518 0.561381 7.037821 0.608131 3.958929 19.285563 -0.371346 7.526633 0.309335 -1.958296 -0.472361 5.898218 -1.831487 -3.636923 -8.903399 -8.247210 60.004232 -61.386992 -35.756144 12.748903 22.311733 -13.641825 -3.483847 1.877597 -0.459853 5.843476 -8.020081 9.463950 -70.937706 -52.433215 45.266916 -1.789278 6.296355 21.604385 -10.400619 -73.354656 2.215694 -132.856860 81.253481 -130.666102 -3.064858 -18.185458 -1.337674 0.029282 0.942887 -0.025904 -6.874113 -78.779463 21.894480 98.439753 77.774766 95.377649 -13.994238 -22.775531 2.039558 -1.141572 -1.582986 -0.563996
-38.647389 50.668508 17.660913 166.024210 -6.092054 -0.519123 0.610334 7.332067 1.213994 0.024825 0.333145 0.026592 0.043560 0.583508 0.046654 0.561110 7.049174 0.596720 4.027483 19.229222 -0.364877 7.513925 0.077709 -1.933311 -0.374118 5.758578 -1.871080 -3.295152 -8.842926 -8.261770 60.570608 -60.802985 -35.978077 12.298903 22.342911 -15.050539 -3.650184 1.764148 -0.384747 5.056648 -7.860281 9.777195 -69.165110 -52.734886 43.936214 -0.831405 4.250287 24.023309 -10.472170 -73.500422 2.264817 -132.560248 81.209360 -130.406342 -3.262286 -18.255251 -1.320945 0.201204 0.999417 0.057014 -9.296058 -78.836307 23.900789 99.094443 77.559918 95.616252 -13.477589 -22.588002 1.989196 -1.517044 -1.770437 -0.722912
-38.644926 50.665393 17.645269 166.138270 -6.009382 -0.600930 0.551396 7.392999 1.259314 0.024672 0.334608 0.025739 0.043324 0.586040 0.045200 0.555992 7.064827 0.577433 4.058966 19.151762 -0.354695 7.534979 -0.111824 -1.910962 -0.272740 5.609696 -1.890833 -2.931032 -8.832595 -8.258714 61.561765 -59.985353 -36.671551 11.792163 22.395383 -16.558762 -3.788959 1.617561 -0.307153 4.357018 -7.579344 9.873945 -67.492912 -52.847291 42.860144 0.036464 2.465873 26.073962 -10.702302 -73.549263 2.456094 -132.686475 81.186414 -130.522101 -3.336363 -18.290026 -1.273008 0.227664 0.992453 0.071768 -11.805111 -78.819804 26.204833 99.813218 77.539470 95.988162 -13.382730 -22.427496 1.971248 -1.503122 -1.890181 -0.716491
-38.630151 50.662149 17.624832 166.223826 -5.942651 -0.696214 0.518070 7.467095 1.313803 0.024305 0.336267 0.024592 0.042618 0.588963 0.043133 0.544996 7.083216 0.550639 4.077155 19.066223 -0.336215 7.547377 -0.241580 -1.882915 -0.169302 5.455917 -1.891244 -2.537164 -8.873340 -8.241872 62.702274 -58.971133 -37.569496 11.227101 22.423090 -18.135744 -3.861505 1.459008 -0.224444 3.709148 -7.190083 9.812810 -65.822030 -53.079429 41.878980 0.514601 1.196043 27.644875 -10.875989 -73.574403 2.607000 -132.928609 81.177564 -130.731057 -3.333552 -18.329635 -1.226510 0.180300 0.983797 0.059327 -12.537165 -78.895516 26.906812 100.087532 77.620523 96.264142 -13.534141 -22.383887 1.980703 -1.315166 -1.927560 -0.655170
-38.610575 50.659859 17.600189 166.258324 -5.873611 -0.748982 0.524740 7.531773 1.325144 0.023831 0.337930 0.023203 0.041781 0.591811 0.040621 0.531692 7.101419 0.518824 4.092247 18.989236 -0.312737 7.569352 -0.366785 -1.853956 -0.064996 5.310522 -1.876628 -2.110511 -8.961521 -8.219675 63.789889 -57.850967 -38.459079 10.648728 22.422516 -19.723955 -3.926062 1.303836 -0.136397 3.157746 -6.729443 9.740247 -64.103500 -53.590672 40.842050 0.641934 0.472956 28.765948 -10.995791 -73.617650 2.728782 -133.206384 81.169719 -131.004398 -3.280550 -18.347979 -1.188746 0.096097 0.957444 0.032971 -11.726984 -79.039684 26.193716 99.942472 77.743629 96.355238 -13.817114 -22.478626 2.006982 -1.095135 -1.814221 -0.559021
-38.585014 50.659905 17.571439 166.295289 -5.802657 -0.772496 0.520847 7.585444 1.304262 0.023300 0.339602 0.021632 0.040864 0.594633 0.037868 0.517462 7.119464 0.483739 4.102114 18.919289 -0.283476 7.605225 -0.505359 -1.825721 0.038749 5.180692 -1.850703 -1.655916 -9.084609 -8.200637 64.699937 -56.711275 -39.200434 10.115729 22.390571 -21.275785 -4.110377 1.114486 -0.052446 2.825950 -6.232007 9.806488 -62.324675 -54.329499 39.608729 0.609688 0.123585 29.527540 -11.048878 -73.666855 2.779613 -133.467382 81.154004 -131.274670 -3.198820 -18.330041 -1.181047 0.011586 0.892000 0.025570 -10.226829 -79.186606 24.822265 99.568170 77.883831 96.293564 -14.203453 -22.739303 2.039819 -0.839344 -1.543175 -0.435958
-38.546302 50.663487 17.539377 166.310408 -5.739742 -0.817724 0.538987 7.638917 1.306755 0.022623 0.341270 0.020001 0.039628 0.597476 0.035021 0.499982 7.137665 0.447618 4.107131 18.855720 -0.249516 7.606825 -0.656217 -1.758404 0.146942 5.065681 -1.818399 -1.187165 -9.223725 -8.187706 65.376536 -55.630092 -39.741090 9.651378 22.321695 -22.806980 -4.211196 0.962321 0.053664 2.529318 -5.860567 10.043062 -60.515859 -55.159662 38.108336 0.587805 -0.068161 30.031185 -11.236297 -73.665683 3.034344 -133.325713 81.123817 -131.178216 -3.174799 -18.431169 -1.136809 -0.040044 0.939662 0.014656 -8.995212 -79.283729 23.739637 99.184499 78.015587 96.172612 -14.468390 -22.948561 2.077480 -0.637480 -1.317425 -0.339437
-38.509446 50.670258 17.507425 166.344949 -5.649740 -0.823062 0.530876 7.660275 1.267575 0.009688 0.287550 0.040750 0.050047 0.655569 0.009853 0.480239 7.155180 0.412610 4.106485 18.801085 -0.212388 7.591119 -0.769165 -1.686077 0.260874 4.964789 -1.782959 -0.709757 -9.367099 -8.185245 65.834006 -54.670795 -40.118589 9.239594 22.225724 -24.328178 -4.262482 0.840546 0.181098 2.318062 -5.681518 10.424337 -58.723995 -55.935333 36.329173 0.642891 -0.255258 30.390959 -11.421934 -73.710860 3.268651 -133.195399 81.076810 -131.126959 -3.177157 -18.506944 -1.081328 -0.070020 0.958831 0.003462 -7.999747 -79.380229 22.838350 98.854032 78.121133 96.022469 -14.678028 -23.108791 2.107771 -0.521254 -1.160112 -0.280249
-38.479938 50.679912 17.477707 166.408832 -5.520474 -0.778646 0.491013 7.637476 1.176226 -0.008782 0.238490 0.061852 0.066455 0.708656 -0.015301 0.464440 7.170799 0.380688 4.096595 18.759395 -0.172745 7.561996 -0.849643 -1.612924 0.372696 4.878892 -1.740842 -0.222633 -9.505695 -8.197285 66.093419 -53.860208 -40.385638 8.857712 22.120543 -25.811781 -4.300134 0.738325 0.322239 2.223332 -5.714986 10.889957 -57.038860 -56.540591 34.350918 0.756820 -0.500631 30.706504 -11.456162 -73.824283 3.284324 -133.331700 81.040881 -131.326267 -3.137351 -18.547528 -1.041618 -0.140259 0.939399 -0.017170 -7.060254 -79.505661 21.918734 98.525933 78.198767 95.821972 -14.799173 -23.203207 2.120436 -0.435682 -1.058715 -0.234624
-38.442473 50.693351 17.443090 166.450874 -5.424068 -0.775063 0.486756 7.637526 1.129921 0.010548 0.320486 0.027026 0.047117 0.629728 0.016026 0.458403 7.182841 0.353002 4.078491 18.711820 -0.124384 7.508682 -0.872613 -1.535741 0.479766 4.812323 -1.687139 0.266317 -9.627919 -8.220743 66.160797 -53.193646 -40.563029 8.494484 22.009714 -27.227014 -4.331267 0.652619 0.464740 2.234305 -5.943956 11.376555 -55.598687 -56.909468 32.348095 0.883624 -0.797081 31.039989 -11.704089 -73.869789 3.599379 -133.037994 80.975548 -131.138650 -3.198938 -18.629812 -1.008875 -0.118247 0.959976 0.013182 -6.494814 -79.585902 21.368886 98.330949 78.218106 95.721629 -14.836326 -23.294151 2.135164 -0.414111 -0.987778 -0.232637
-38.407512 50.709942 17.399352 166.474302 -5.377392 -0.759574 0.504453 7.674409 1.077074 0.021373 0.346227 0.014622 0.037433 0.606044 0.025590 0.464106 7.190605 0.331136 4.053365 18.636461 -0.065049 7.432971 -0.803981 -1.463771 0.587810 4.766729 -1.623912 0.738470 -9.723960 -8.247049 66.056963 -52.661944 -40.656342 8.155218 21.882709 -28.548562 -4.369690 0.573925 0.570277 2.323718 -6.311584 11.859628 -54.525519 -57.031197 30.519141 0.990587 -1.116327 31.420429 -11.839071 -73.869668 3.821331 -132.745084 80.906497 -130.946692 -3.304007 -18.647623 -0.959734 -0.058877 0.913782 0.040904 -5.913453 -79.613251 20.803220 98.252651 78.173259 95.722679 -14.897959 -23.433145 2.133433 -0.424151 -0.902098 -0.226640
-38.379131 50.726998 17.366268 166.431901 -5.266014 -0.741659 0.589698 7.631643 1.032387 0.022194 0.346794 0.013945 0.014543 0.574979 0.041665 0.501797 7.228325 0.301119 4.003447 18.728473 -0.055073 7.354887 -0.844192 -1.381603 0.699558 4.736403 -1.559525 1.170792 -9.786629 -8.267880 65.816236 -52.270944 -40.675828 7.865877 21.733590 -29.744554 -4.415077 0.509295 0.658739 2.435465 -6.759996 12.281995 -53.840993 -56.942813 28.991116 1.069770 -1.447522 31.848566 -11.889505 -73.953008 3.981622 -132.576498 80.861493 -130.825323 -3.333888 -18.721402 -0.926936 -0.041997 0.944907 0.028547 -5.387968 -79.702118 20.356778 98.145480 78.142036 95.677965 -14.869604 -23.437701 2.137073 -0.510293 -0.927604 -0.251418
